<svg width="24" height="153" viewBox="0 0 24 153" fill="none" xmlns="http://www.w3.org/2000/svg">
<g clip-path="url(#clip0_951_1213)">
<path d="M12 22C17.5228 22 22 17.5228 22 12C22 6.47715 17.5228 2 12 2C6.47715 2 2 6.47715 2 12C2 17.5228 6.47715 22 12 22Z" stroke="black" stroke-width="2" stroke-linecap="round" stroke-linejoin="round"/>
<path opacity="0.3" d="M12 6V12L15 15" stroke="black" stroke-width="2" stroke-linecap="round" stroke-linejoin="round"/>
</g>
<g clip-path="url(#clip1_951_1213)">
<path d="M12 81C14.7614 81 17 78.7614 17 76C17 73.2386 14.7614 71 12 71C9.23858 71 7 73.2386 7 76C7 78.7614 9.23858 81 12 81Z" stroke="#333333" stroke-opacity="0.4" stroke-width="2" stroke-linecap="round" stroke-linejoin="round"/>
<path d="M12 65V67" stroke="#333333" stroke-opacity="0.1" stroke-width="2" stroke-linecap="round" stroke-linejoin="round"/>
<path d="M12 85V87" stroke="#333333" stroke-opacity="0.1" stroke-width="2" stroke-linecap="round" stroke-linejoin="round"/>
<path d="M4.21875 68.22L5.63875 69.64" stroke="#333333" stroke-opacity="0.1" stroke-width="2" stroke-linecap="round" stroke-linejoin="round"/>
<path d="M18.3594 82.36L19.7794 83.78" stroke="#333333" stroke-opacity="0.1" stroke-width="2" stroke-linecap="round" stroke-linejoin="round"/>
<path d="M1 76H3" stroke="#333333" stroke-opacity="0.1" stroke-width="2" stroke-linecap="round" stroke-linejoin="round"/>
<path d="M21 76H23" stroke="#333333" stroke-opacity="0.1" stroke-width="2" stroke-linecap="round" stroke-linejoin="round"/>
<path d="M4.21875 83.78L5.63875 82.36" stroke="#333333" stroke-opacity="0.1" stroke-width="2" stroke-linecap="round" stroke-linejoin="round"/>
<path d="M18.3594 69.64L19.7794 68.22" stroke="#333333" stroke-opacity="0.1" stroke-width="2" stroke-linecap="round" stroke-linejoin="round"/>
</g>
<g clip-path="url(#clip2_951_1213)">
<path d="M12 49C14.7614 49 17 46.7614 17 44C17 41.2386 14.7614 39 12 39C9.23858 39 7 41.2386 7 44C7 46.7614 9.23858 49 12 49Z" stroke="#F5A623" stroke-width="2" stroke-linecap="round" stroke-linejoin="round"/>
<path d="M12 33V35" stroke="#FFD93E" stroke-width="2" stroke-linecap="round" stroke-linejoin="round"/>
<path d="M12 53V55" stroke="#FFD93E" stroke-width="2" stroke-linecap="round" stroke-linejoin="round"/>
<path d="M4.21875 36.22L5.63875 37.64" stroke="#FFD93E" stroke-width="2" stroke-linecap="round" stroke-linejoin="round"/>
<path d="M18.3594 50.36L19.7794 51.78" stroke="#FFD93E" stroke-width="2" stroke-linecap="round" stroke-linejoin="round"/>
<path d="M1 44H3" stroke="#FFD93E" stroke-width="2" stroke-linecap="round" stroke-linejoin="round"/>
<path d="M21 44H23" stroke="#FFD93E" stroke-width="2" stroke-linecap="round" stroke-linejoin="round"/>
<path d="M4.21875 51.78L5.63875 50.36" stroke="#FFD93E" stroke-width="2" stroke-linecap="round" stroke-linejoin="round"/>
<path d="M18.3594 37.64L19.7794 36.22" stroke="#FFD93E" stroke-width="2" stroke-linecap="round" stroke-linejoin="round"/>
</g>
<g clip-path="url(#clip3_951_1213)">
<path fill-rule="evenodd" clip-rule="evenodd" d="M14.0003 143.76V132.5C14.0003 131.119 12.8811 130 11.5003 130C10.1196 130 9.00035 131.119 9.00035 132.5V143.76C7.35223 144.861 6.61874 146.911 7.19411 148.808C7.76948 150.705 9.5182 152.002 11.5003 152.002C13.4825 152.002 15.2312 150.705 15.8066 148.808C16.382 146.911 15.6485 144.861 14.0003 143.76Z" stroke="#333333" stroke-opacity="0.4" stroke-width="2" stroke-linecap="round" stroke-linejoin="round"/>
<path d="M11.5 151C13.433 151 15 149.433 15 147.5C15 145.567 13.433 144 11.5 144C9.567 144 8 145.567 8 147.5C8 149.433 9.567 151 11.5 151Z" fill="#333333" fill-opacity="0.1"/>
</g>
<g clip-path="url(#clip4_951_1213)">
<path fill-rule="evenodd" clip-rule="evenodd" d="M14.0003 111.76V100.5C14.0003 99.1193 12.8811 98 11.5003 98C10.1196 98 9.00035 99.1193 9.00035 100.5V111.76C7.35223 112.861 6.61874 114.911 7.19411 116.808C7.76948 118.705 9.5182 120.002 11.5003 120.002C13.4825 120.002 15.2312 118.705 15.8066 116.808C16.382 114.911 15.6485 112.861 14.0003 111.76Z" stroke="#F5A623" stroke-width="2" stroke-linecap="round" stroke-linejoin="round"/>
<path d="M11.5 119C13.433 119 15 117.433 15 115.5C15 113.567 13.433 112 11.5 112C9.567 112 8 113.567 8 115.5C8 117.433 9.567 119 11.5 119Z" fill="#FFD93E"/>
</g>
<defs>
<clipPath id="clip0_951_1213">
<rect width="24" height="24" fill="white"/>
</clipPath>
<clipPath id="clip1_951_1213">
<rect width="24" height="24" fill="white" transform="translate(0 64)"/>
</clipPath>
<clipPath id="clip2_951_1213">
<rect width="24" height="24" fill="white" transform="translate(0 32)"/>
</clipPath>
<clipPath id="clip3_951_1213">
<rect width="24" height="24" fill="white" transform="translate(0 129)"/>
</clipPath>
<clipPath id="clip4_951_1213">
<rect width="24" height="24" fill="white" transform="translate(0 97)"/>
</clipPath>
</defs>
</svg>
